<?xml version="1.0" standalone="no"?>
<!DOCTYPE svg PUBLIC "-//W3C//DTD SVG 20010904//EN"
 "http://www.w3.org/TR/2001/REC-SVG-20010904/DTD/svg10.dtd">
<svg version="1.0" xmlns="http://www.w3.org/2000/svg"
 width="449.000000pt" height="112.000000pt" viewBox="0 0 449.000000 112.000000"
 preserveAspectRatio="xMidYMid meet">

<g transform="translate(0.000000,112.000000) scale(0.100000,-0.100000)"
fill="#2861d3" stroke="none">
<path d="M248 1027 l-248 -89 0 -88 0 -88 32 -12 33 -12 -32 -14 -33 -14 0
-86 0 -86 30 -11 c16 -6 30 -14 30 -17 0 -3 -14 -11 -30 -17 l-30 -11 0 -86 0
-87 44 -18 c31 -14 45 -27 50 -46 4 -14 24 -45 45 -68 21 -23 48 -64 61 -90
34 -72 99 -106 142 -73 23 17 48 77 48 116 0 16 3 30 6 30 4 0 58 -18 121 -41
l114 -41 245 88 244 89 0 91 c0 90 -1 92 -25 98 -14 4 -25 10 -25 15 0 5 11
12 25 15 24 6 25 9 25 99 0 92 0 93 -27 104 l-28 10 28 11 28 12 -3 91 -3 92
-205 74 c-113 41 -252 91 -310 112 l-105 38 -247 -90z m516 -48 c138 -50 257
-94 263 -98 11 -6 -369 -151 -395 -151 -18 0 -543 192 -538 197 9 9 382 142
400 143 10 0 132 -41 270 -91z m-429 -188 l270 -98 3 -56 3 -56 -79 29 c-43
16 -94 35 -113 43 -35 15 -34 16 16 32 13 4 14 9 5 26 -8 14 -17 18 -28 14
-43 -18 -50 -17 -54 7 -2 12 -9 23 -17 23 -21 0 -24 -20 -6 -39 35 -35 -17
-28 -153 21 l-137 49 -3 52 c-2 38 1 52 10 52 7 0 135 -45 283 -99z m-111
-112 c53 -19 86 -36 86 -45 0 -8 -4 -14 -9 -14 -21 0 -211 77 -205 83 13 13
42 7 128 -24z m-41 -60 l117 -42 0 -54 c0 -61 7 -60 -98 -21 -50 19 -61 38
-21 38 12 0 19 7 19 19 0 32 -18 34 -66 7 -38 -21 -49 -23 -69 -14 -22 10 -25
18 -25 66 0 40 3 53 13 49 7 -3 66 -24 130 -48z m847 33 c0 -5 -90 -41 -199
-81 l-200 -72 -123 44 c-165 61 -158 57 -158 73 0 8 3 14 8 14 4 0 67 -22 140
-49 l133 -49 172 63 c162 60 227 76 227 57z m-543 -143 l123 -44 0 -52 c0 -29
-3 -53 -7 -53 -19 0 -133 44 -133 52 0 4 12 8 26 8 21 0 25 4 22 23 -3 23 -25
27 -60 13 -12 -6 -17 -2 -20 16 -2 12 -11 24 -20 26 -22 4 -24 -21 -3 -38 26
-22 2 -34 -39 -20 -36 11 -36 12 -36 67 0 40 3 54 13 51 6 -3 67 -25 134 -49z
m-201 -84 c39 -28 0 -28 -79 -1 -89 31 -102 39 -93 54 7 12 141 -30 172 -53z
m-226 -9 c0 -13 3 -38 6 -55 5 -24 3 -31 -10 -31 -13 0 -16 11 -16 55 0 30 5
55 10 55 6 0 10 -11 10 -24z m960 14 c8 -5 12 -11 10 -13 -3 -2 -94 -36 -202
-75 l-198 -72 -106 39 c-116 43 -122 47 -108 61 7 7 42 -1 105 -25 52 -19 101
-35 110 -35 8 0 94 29 190 64 198 74 180 69 199 56z m-820 -45 c105 -37 98
-31 92 -83 -2 -26 -6 -48 -7 -50 -2 -2 -14 0 -29 4 -33 8 -34 24 0 24 21 0 25
4 22 22 -4 31 -28 33 -69 5 -30 -21 -38 -22 -64 -11 -31 13 -42 36 -44 93 -1
28 2 32 17 26 9 -4 46 -17 82 -30z m180 -1 c0 -18 -36 -18 -43 0 -7 19 0 25
24 19 10 -3 19 -12 19 -19z m-20 -109 c0 -30 -2 -55 -4 -55 -2 0 -10 2 -18 5
-19 7 -11 105 8 105 10 0 14 -14 14 -55z m158 -5 l92 -33 0 -53 c0 -30 -2 -54
-4 -54 -3 0 -50 16 -105 36 -84 30 -101 40 -101 57 0 16 3 18 12 9 19 -19 28
-14 28 13 0 22 -9 30 -32 26 -5 0 -8 8 -8 20 0 13 5 19 13 17 6 -3 54 -20 105
-38z m-348 -40 c0 -11 -3 -20 -8 -20 -4 0 -13 9 -20 20 -11 18 -10 20 8 20 13
0 20 -7 20 -20z m100 -25 c0 -19 -17 -35 -36 -35 -20 0 -24 5 -24 29 0 29 1
30 30 20 17 -6 30 -12 30 -14z m69 -25 c16 -8 17 -16 10 -61 -5 -29 -15 -59
-23 -67 -21 -21 -58 -8 -79 27 -22 38 -22 51 3 51 11 0 29 14 42 30 25 34 23
33 47 20z"/>
<path d="M83 834 c-3 -8 1 -23 10 -32 15 -14 17 -14 23 1 8 21 -1 47 -16 47
-6 0 -13 -7 -17 -16z"/>
<path d="M163 804 c-3 -8 1 -23 10 -32 15 -14 17 -14 23 1 8 21 -1 47 -16 47
-6 0 -13 -7 -17 -16z"/>
<path d="M246 781 c-9 -14 4 -41 21 -41 9 0 13 8 11 22 -3 23 -23 35 -32 19z"/>
<path d="M486 691 c-9 -13 4 -41 18 -41 20 0 26 11 15 31 -10 20 -24 24 -33
10z"/>
<path d="M86 611 c-9 -14 4 -41 21 -41 9 0 13 8 11 22 -3 23 -23 35 -32 19z"/>
<path d="M246 551 c-9 -14 4 -41 21 -41 9 0 13 8 11 22 -3 23 -23 35 -32 19z"/>
<path d="M160 352 c0 -22 13 -42 27 -42 21 0 12 44 -9 48 -10 2 -18 -1 -18 -6z"/>
<path d="M483 234 c-3 -8 2 -23 11 -32 14 -15 18 -15 26 -3 10 16 -4 51 -21
51 -5 0 -12 -7 -16 -16z"/>
<path d="M1390 560 l0 -150 45 0 45 0 0 58 0 57 57 -1 58 -2 3 -56 3 -56 39 0
40 0 0 150 0 150 -40 0 -39 0 -3 -57 -3 -58 -57 -3 -58 -3 0 61 0 60 -45 0
-45 0 0 -150z"/>
<path d="M1840 707 c0 -2 -29 -70 -64 -150 l-65 -147 43 0 43 0 38 98 c21 53
41 101 45 105 4 5 26 -39 50 -97 l42 -106 44 0 43 0 -50 113 c-28 61 -58 129
-66 150 -14 35 -18 37 -59 37 -24 0 -44 -2 -44 -3z"/>
<path d="M2119 695 c-14 -8 -32 -28 -39 -46 -26 -61 8 -99 119 -131 53 -15 63
-34 26 -48 -24 -9 -74 -3 -116 14 -11 5 -19 -1 -27 -19 -15 -34 -10 -42 36
-55 80 -22 164 -5 196 41 40 58 -2 117 -97 138 -51 11 -58 15 -55 34 3 19 9
22 48 21 25 0 53 -4 62 -8 13 -6 21 -1 30 19 11 24 10 29 -7 41 -25 18 -142
18 -176 -1z"/>
<path d="M2370 560 l0 -150 43 0 42 0 0 56 0 56 60 0 60 1 3 -57 3 -56 39 0
40 0 0 150 0 150 -40 0 -39 0 -3 -57 -3 -58 -60 0 -60 0 -3 58 -3 57 -39 0
-40 0 0 -150z"/>
<path d="M2722 678 l3 -33 80 -3 c86 -3 105 -12 105 -48 0 -33 -28 -44 -114
-44 l-76 0 0 -70 0 -70 45 0 45 0 0 40 0 40 53 0 c69 0 112 26 128 78 14 47 0
83 -44 116 -23 17 -46 22 -128 24 l-100 4 3 -34z"/>
<path d="M3112 693 c-75 -37 -106 -146 -60 -212 37 -55 71 -74 135 -78 76 -5
128 23 161 87 39 75 18 146 -58 198 -40 27 -128 30 -178 5z m146 -75 c31 -30
30 -91 -3 -123 -64 -65 -164 8 -133 97 20 57 88 70 136 26z"/>
<path d="M3418 595 c20 -63 39 -112 42 -108 3 5 14 33 23 64 15 51 16 60 2
107 l-16 52 -43 0 -43 0 35 -115z"/>
<path d="M3597 702 c-3 -4 -24 -66 -47 -137 -24 -72 -45 -136 -48 -143 -3 -10
5 -13 33 -10 38 3 39 3 64 80 14 42 29 80 33 83 4 4 12 -11 18 -34 6 -23 12
-41 15 -41 2 0 11 23 20 51 15 45 16 59 5 105 -13 53 -14 54 -51 54 -21 0 -40
-3 -42 -8z"/>
<path d="M3755 568 c-25 -78 -45 -146 -45 -150 0 -4 17 -8 38 -8 l39 0 43 138
c24 75 45 143 48 150 3 8 -8 12 -37 12 l-40 0 -46 -142z"/>
<path d="M3920 675 l0 -36 118 3 117 3 3 33 3 32 -120 0 -121 0 0 -35z"/>
<path d="M4210 675 l0 -35 85 0 c81 0 86 -1 97 -25 9 -21 8 -28 -7 -45 -15
-17 -31 -20 -97 -20 l-78 0 0 -70 0 -70 39 0 c39 0 40 1 43 38 2 29 7 38 25
40 16 2 29 -7 49 -37 25 -38 30 -41 71 -41 45 0 45 0 31 23 -43 65 -42 61 -14
92 19 21 26 39 26 69 0 84 -51 116 -185 116 l-85 0 0 -35z"/>
<path d="M3920 560 l0 -30 120 0 120 0 0 30 0 30 -120 0 -120 0 0 -30z"/>
<path d="M3920 440 l0 -30 120 0 120 0 0 30 0 30 -120 0 -120 0 0 -30z"/>
</g>
</svg>
